<svg width="52" height="52" viewBox="0 0 52 52" fill="none" xmlns="http://www.w3.org/2000/svg">
<circle cx="26" cy="26" r="25.5" fill="#F01818" stroke="black"/>
<circle cx="26" cy="26" r="18" fill="white"/>
<path d="M25.9992 31.179C25.0787 31.179 24.2606 31.0213 23.5447 30.706C22.833 30.3906 22.2705 29.9517 21.8572 29.3892C21.4438 28.8267 21.2243 28.1768 21.1988 27.4396H23.6022C23.6235 27.7933 23.7407 28.1023 23.9537 28.3665C24.1668 28.6264 24.4502 28.8288 24.8039 28.9737C25.1576 29.1186 25.5539 29.1911 25.9928 29.1911C26.4616 29.1911 26.877 29.1101 27.2393 28.9482C27.6015 28.782 27.8849 28.5518 28.0894 28.2578C28.2939 27.9638 28.3941 27.625 28.3898 27.2415C28.3941 26.8452 28.2918 26.4957 28.083 26.1932C27.8742 25.8906 27.5716 25.6541 27.1753 25.4837C26.7833 25.3132 26.3103 25.228 25.7563 25.228H24.5993V23.3999H25.7563C26.2123 23.3999 26.6107 23.321 26.9516 23.1634C27.2968 23.0057 27.5674 22.7841 27.7634 22.4986C27.9594 22.2088 28.0553 21.8743 28.051 21.495C28.0553 21.1243 27.9722 20.8026 27.8018 20.5298C27.6356 20.2528 27.3991 20.0376 27.0922 19.8842C26.7897 19.7308 26.4339 19.6541 26.0248 19.6541C25.6242 19.6541 25.2535 19.7266 24.9126 19.8714C24.5716 20.0163 24.2968 20.223 24.088 20.4915C23.8792 20.7557 23.7684 21.071 23.7556 21.4375H21.4736C21.4907 20.7045 21.7016 20.0611 22.1064 19.5071C22.5155 18.9489 23.061 18.5142 23.7428 18.2031C24.4246 17.8878 25.1895 17.7301 26.0376 17.7301C26.9111 17.7301 27.6697 17.8942 28.3131 18.2223C28.9608 18.5462 29.4616 18.983 29.8153 19.5327C30.1689 20.0824 30.3458 20.6896 30.3458 21.3544C30.3501 22.0916 30.1327 22.7095 29.6938 23.2081C29.2591 23.7067 28.6881 24.0327 27.9807 24.1861V24.2884C28.9012 24.4162 29.6064 24.7571 30.0965 25.3111C30.5908 25.8608 30.8358 26.5447 30.8316 27.3629C30.8316 28.0959 30.6228 28.7521 30.2052 29.3317C29.7918 29.907 29.2208 30.3587 28.4921 30.6868C27.7677 31.0149 26.9367 31.179 25.9992 31.179Z" fill="black"/>
</svg>
