<svg width="52" height="52" viewBox="0 0 52 52" fill="none" xmlns="http://www.w3.org/2000/svg">
<circle cx="26" cy="26" r="25.5" fill="#F01818" stroke="black"/>
<circle cx="26" cy="26" r="18" fill="white"/>
<path d="M21.5735 31V29.2869L26.1183 24.8317C26.5529 24.3928 26.9151 24.0028 27.2049 23.6619C27.4947 23.321 27.712 22.9908 27.8569 22.6712C28.0018 22.3516 28.0742 22.0107 28.0742 21.6484C28.0742 21.2351 27.9805 20.8814 27.793 20.5874C27.6055 20.2891 27.3477 20.0589 27.0195 19.897C26.6914 19.7351 26.3185 19.6541 25.9009 19.6541C25.4705 19.6541 25.0934 19.7436 24.7695 19.9226C24.4457 20.0973 24.1942 20.3466 24.0153 20.6705C23.8406 20.9943 23.7532 21.38 23.7532 21.8274H21.4968C21.4968 20.9964 21.6864 20.2741 22.0657 19.6605C22.445 19.0469 22.967 18.5717 23.6317 18.2351C24.3008 17.8984 25.0678 17.7301 25.9329 17.7301C26.8107 17.7301 27.582 17.8942 28.2468 18.2223C28.9116 18.5504 29.4272 19 29.7937 19.571C30.1644 20.142 30.3498 20.794 30.3498 21.527C30.3498 22.017 30.256 22.4986 30.0685 22.9716C29.881 23.4446 29.5508 23.9687 29.0778 24.544C28.609 25.1193 27.9506 25.8161 27.1026 26.6342L24.8462 28.929V29.0185H30.5479V31H21.5735Z" fill="black"/>
</svg>
